<svg xmlns="http://www.w3.org/2000/svg" xmlns:xlink="http://www.w3.org/1999/xlink" width="63" height="63" viewBox="0 0 63 63">
  <defs>
    <clipPath id="clip-path">
      <rect id="Rectangle_8348" data-name="Rectangle 8348" width="41.802" height="42.022" transform="translate(0 0)" fill="#fff"/>
    </clipPath>
  </defs>
  <g id="Group_49060" data-name="Group 49060" transform="translate(8527 -102)">
    <circle id="Ellipse_63" data-name="Ellipse 63" cx="31.5" cy="31.5" r="31.5" transform="translate(-8527 102)" fill="#ed2023"/>
    <g id="Group_49066" data-name="Group 49066" transform="translate(-8516.401 112.489)">
      <g id="Group_49065" data-name="Group 49065" transform="translate(0 0)" clip-path="url(#clip-path)">
        <path id="Path_14860" data-name="Path 14860" d="M27.957,199.943l.943,1.451c.631.971,1.266,1.94,1.892,2.914a1.532,1.532,0,0,1-.94,2.348q-3.032.713-6.066,1.422l-5.713,1.34-.648.152c.054.085.1.156.145.227q2.024,3.114,4.048,6.226A3.219,3.219,0,0,1,19.459,221a3.105,3.105,0,0,1-3.23-1.446c-1.578-2.4-3.133-4.811-4.7-7.218l-.137-.209c-.06.036-.106.064-.152.093-.332.215-.662.432-.994.646a6.483,6.483,0,0,1-2.6.977,6.656,6.656,0,0,1-4.669-12.13c1.242-.818,2.493-1.623,3.74-2.432a.97.97,0,0,0,.251-.232q4.8-6.343,9.6-12.685A1.553,1.553,0,0,1,17.6,185.7a1.48,1.48,0,0,1,1.517.645c.157.218.3.449.442.675l2.324,3.576c.033.05.067.1.106.156a5.561,5.561,0,0,1,4.312.068,5.568,5.568,0,0,1,3.306,5.815,5.5,5.5,0,0,1-1.651,3.3M25.92,206.25,15.4,190.061l-7.255,9.577,6.08,9.354,11.7-2.743M7.179,200.53c-.032.016-.047.023-.061.031-1.169.76-2.349,1.5-3.5,2.284a5.358,5.358,0,0,0,2.734,9.762,5.239,5.239,0,0,0,3.193-.831c1.127-.723,2.247-1.457,3.369-2.187.035-.023.065-.051.1-.08L7.179,200.53m9.053-11.56,11.025,16.963.2-.044,2.017-.472c.309-.072.364-.209.189-.479L18.11,187.167a.959.959,0,0,0-.075-.108.229.229,0,0,0-.348-.013.713.713,0,0,0-.062.077L16.3,188.868c-.023.03-.043.062-.07.1M12.48,211.413c.039.061.067.107.1.153l3.365,5.178c.464.713.919,1.432,1.393,2.139a1.843,1.843,0,0,0,1.775.86,1.82,1.82,0,0,0,1.572-1.093,1.867,1.867,0,0,0-.145-1.911q-2.183-3.363-4.369-6.725c-.027-.041-.057-.079-.086-.12A.73.73,0,0,0,16,209.9c-.576.136-1.152.27-1.727.411a.916.916,0,0,0-.269.113c-.389.247-.774.5-1.161.752l-.359.235m10.24-19.528,4.5,6.928a4.261,4.261,0,0,0-4.5-6.928" transform="translate(-0.001 -179.016)" fill="#fff"/>
        <path id="Path_14861" data-name="Path 14861" d="M884.027,545.371h.7l.006-.028c-.047-.021-.093-.044-.14-.064a2,2,0,0,1-1.27-1.722,1.779,1.779,0,0,1,0-.185,2.438,2.438,0,0,0,.8.221c-.066-.061-.108-.1-.149-.139a2.035,2.035,0,0,1-.589-1.986.974.974,0,0,1,.25-.495A6.106,6.106,0,0,0,884.777,542a5.861,5.861,0,0,0,1.381.686,7.823,7.823,0,0,0,1.492.352,1.069,1.069,0,0,0,0-.138,2.011,2.011,0,0,1,1.622-2.235,1.894,1.894,0,0,1,1.719.489.209.209,0,0,0,.223.052,5.4,5.4,0,0,0,.937-.354c.047-.023.1-.044.143-.067l.03.022a1.568,1.568,0,0,1-.047.162,2.23,2.23,0,0,1-.533.744c-.027.026-.055.05-.109.1a4.194,4.194,0,0,0,.879-.242l.025.029a1.036,1.036,0,0,1-.082.166,3.349,3.349,0,0,1-.731.753.273.273,0,0,0-.125.246,7.083,7.083,0,0,1-.365,2.265,4.886,4.886,0,0,1-3.18,3.147,5.941,5.941,0,0,1-4.562-.265c-.134-.062-.261-.139-.39-.213a.358.358,0,0,1-.117-.113,6.48,6.48,0,0,0,.978-.036,4.649,4.649,0,0,0,.966-.26,2.066,2.066,0,0,0,.869-.489l-.171-.041a2.321,2.321,0,0,1-1.186-.636,1.866,1.866,0,0,1-.382-.61,1.1,1.1,0,0,1-.033-.141" transform="translate(-851.29 -521.214)" fill="#fff"/>
        <path id="Path_14862" data-name="Path 14862" d="M815.9,5.537h-1.551V3.755h1.539c0-.075.009-.134.009-.192,0-.39,0-.78,0-1.169a3.062,3.062,0,0,1,.124-.893A2,2,0,0,1,817.591.064,3.551,3.551,0,0,1,818.623.01c.3.02.589.06.884.092a.6.6,0,0,1,.1.027V1.642c-.194,0-.379,0-.564,0a3.013,3.013,0,0,0-.459.023.781.781,0,0,0-.729.765c-.034.43-.007.864-.007,1.319h1.7l-.273,1.779h-1.434c0,.312,0,.606,0,.9s0,.593,0,.889V9.978H815.9Z" transform="translate(-785.118 0.004)" fill="#fff"/>
        <path id="Path_14863" data-name="Path 14863" d="M916.459,252.186c.046-.178.083-.326.123-.474.158-.588.315-1.176.477-1.763a.361.361,0,0,0-.033-.28A4.406,4.406,0,1,1,921.79,252a4.338,4.338,0,0,1-2.785-.377.408.408,0,0,0-.312-.031c-.681.187-1.365.367-2.048.549-.052.014-.1.025-.186.044m1.194-1.2c.061-.011.1-.015.143-.025.328-.087.658-.17.984-.265a.422.422,0,0,1,.367.045,3.471,3.471,0,0,0,2.535.425,3.569,3.569,0,0,0-1.128-7.041,3.432,3.432,0,0,0-2.384,1.319,3.475,3.475,0,0,0-.75,2.713,3.4,3.4,0,0,0,.5,1.382.327.327,0,0,1,.04.292c-.092.316-.173.635-.258.952-.016.062-.029.124-.048.2" transform="translate(-883.561 -234.533)" fill="#fff"/>
        <path id="Path_14864" data-name="Path 14864" d="M579.334,64.782c0,.543.024,1.088-.005,1.63a2.135,2.135,0,0,1-1.932,1.963c-.1.008-.2.013-.3.013-.933,0-1.867,0-2.8,0a2.166,2.166,0,0,1-2.166-2.168c0-.961-.009-1.922,0-2.883a2.155,2.155,0,0,1,1.831-2.134,2.312,2.312,0,0,1,.378-.025c.928,0,1.856,0,2.784,0a2.143,2.143,0,0,1,1.528.586,2.11,2.11,0,0,1,.687,1.585c0,.478,0,.955,0,1.433h-.01m-3.594-2.918c-.456,0-.912,0-1.367,0A1.819,1.819,0,0,0,574,61.9a1.473,1.473,0,0,0-1.176,1.47q-.005,1.417,0,2.834a1.567,1.567,0,0,0,.036.343,1.482,1.482,0,0,0,1.482,1.165c.933,0,1.867,0,2.8,0a1.719,1.719,0,0,0,.5-.079,1.481,1.481,0,0,0,1.025-1.474c0-.912,0-1.823,0-2.735a1.906,1.906,0,0,0-.076-.518,1.468,1.468,0,0,0-1.429-1.036c-.472,0-.945,0-1.417,0" transform="translate(-551.592 -58.982)" fill="#fff"/>
        <path id="Path_14865" data-name="Path 14865" d="M980.876,313.16a1.1,1.1,0,0,1,.267-.777.682.682,0,0,1,.306-.214.411.411,0,0,1,.488.135,2.126,2.126,0,0,1,.353.773.449.449,0,0,1-.084.375c-.047.067-.1.13-.151.195-.1.126-.1.156-.02.293a2.829,2.829,0,0,0,1.111,1.049c.087.046.177.087.268.124.127.051.169.038.25-.075.051-.071.094-.148.144-.22a.407.407,0,0,1,.567-.177,4.284,4.284,0,0,1,.614.346.366.366,0,0,1,.144.437.812.812,0,0,1-.3.441,1.17,1.17,0,0,1-1.071.208,4.148,4.148,0,0,1-2.449-1.8,5.507,5.507,0,0,1-.342-.636.987.987,0,0,1-.1-.477" transform="translate(-945.664 -300.935)" fill="#fff"/>
        <path id="Path_14866" data-name="Path 14866" d="M625.855,113.89a1.777,1.777,0,1,1-1.774-1.785,1.771,1.771,0,0,1,1.774,1.785m-1.8,1.125a1.131,1.131,0,0,0,.056-2.262,1.131,1.131,0,1,0-.056,2.262" transform="translate(-599.962 -108.081)" fill="#fff"/>
        <path id="Path_14867" data-name="Path 14867" d="M608.481,97.6a.428.428,0,0,1-.429.427.436.436,0,0,1-.422-.437.421.421,0,0,1,.424-.412.415.415,0,0,1,.427.422" transform="translate(-585.817 -93.688)" fill="#fff"/>
      </g>
    </g>
  </g>
</svg>
