<svg xmlns="http://www.w3.org/2000/svg" xmlns:xlink="http://www.w3.org/1999/xlink" width="244.299" height="9.391" viewBox="0 0 244.299 9.391">
  <defs>
    <clipPath id="clip-path">
      <rect id="Rectangle_6822" data-name="Rectangle 6822" width="244.299" height="9.391" transform="translate(0 0)"/>
    </clipPath>
  </defs>
  <g id="Group_45884" data-name="Group 45884" transform="translate(0 0)">
    <g id="Group_45881" data-name="Group 45881" clip-path="url(#clip-path)">
      <path id="Path_6817" data-name="Path 6817" d="M4.092,7.091c-.008,0-.008.009,0,.009Q15.063,8.246,26.074,8.846c4.436.241,8.874.43,13.316.505,6.4.108,12.792-.024,19.189-.152,5.52-.112,11.043-.179,16.563-.268q6.635-.1,13.267-.24c5.1-.1,10.195-.16,15.29-.309q17.573-.513,35.148-.968c4.657-.12,9.313-.18,13.972-.231l10.156-.112c1.531-.016,3.059.015,4.589.037l11.2.161c1.624.022,3.246.032,4.869.111,5.395.27,10.793.485,16.185.817,5.9.363,11.807.618,17.711.8,5.141.163,10.286.285,15.431.244a98.209,98.209,0,0,0,11.335-.6s.008-.009,0-.009c-2.482-.368-4.955-.77-7.441-1.1l.217.029c-5.457-.778-10.946-1.4-16.433-1.933q-6.4-.624-12.809-1.145,2.384-.1,4.767-.216c2.252-.108,4.5-.242,6.755-.348,2.875-.134,5.746-.327,8.621-.47,5.206-.259,10.407-.626,15.6-1.131a0,0,0,0,0,0-.009c-5.258-.526-10.56-.58-15.839-.68-5.6-.105-11.212-.119-16.816-.084q-8,.049-16,.28c-4.772.136-9.542.268-14.315.363l-11.586.231c-1.881.036-3.766.1-5.648.11q-9.473.038-18.947.081c-1.6.008-3.2.033-4.8.018l-8.354-.087-11.155-.115c-1.35-.015-2.7-.024-4.05-.057L96.17,1.893c-5.265-.126-10.528-.358-15.79-.542C70.5,1,60.631.622,50.754.328,45.531.173,40.309.06,35.084.016Q33.066,0,31.048,0q-3.581,0-7.16.046c-1.826.023-3.654.086-5.481.085C12.272.126,6.139.281,0,.313,0,.313,0,.322,0,.322c1.614.265,3.224.527,4.844.74q2.463.322,4.928.627,4.558.562,9.121,1.054c.563.062,1.13.1,1.695.14q2.432.192,4.864.365,5.358.38,10.72.651c2.012.1,4.025.168,6.039.225-9.869.35-19.73,1.064-29.552,2.062-2.858.29-5.716.583-8.569.905"/>
    </g>
  </g>
</svg>
