<svg xmlns="http://www.w3.org/2000/svg" xmlns:xlink="http://www.w3.org/1999/xlink" width="9.391" height="428.67" viewBox="0 0 9.391 428.67">
  <defs>
    <clipPath id="clip-path">
      <rect id="Rectangle_6822" data-name="Rectangle 6822" width="428.67" height="9.391" transform="translate(0 0)" fill="#fff"/>
    </clipPath>
  </defs>
  <g id="Group_45883" data-name="Group 45883" transform="translate(0 428.67) rotate(-90)">
    <g id="Group_45881" data-name="Group 45881" clip-path="url(#clip-path)">
      <path id="Path_6817" data-name="Path 6817" d="M7.181,7.091c-.014,0-.014.009,0,.009Q26.431,8.246,45.752,8.846c7.784.241,15.571.43,23.365.505,11.227.108,22.446-.024,33.671-.152,9.686-.112,19.377-.179,29.063-.268q11.642-.1,23.28-.24c8.944-.1,17.889-.16,26.829-.309q30.834-.513,61.674-.968c8.172-.12,16.341-.18,24.517-.231l17.821-.112c2.686-.016,5.368.015,8.052.037l19.651.161c2.85.022,5.7.032,8.544.111,9.467.27,18.938.485,28.4.817q15.516.545,31.077.8c9.021.163,18.049.285,27.077.244,6.635-.031,13.3-.128,19.889-.6.009,0,.014-.009,0-.009-4.355-.368-8.695-.77-13.057-1.1l.381.029c-9.575-.778-19.207-1.4-28.835-1.933q-11.228-.624-22.476-1.145,4.182-.1,8.365-.216c3.952-.108,7.9-.242,11.853-.348,5.045-.134,10.082-.327,15.127-.47q13.7-.389,27.366-1.131c.011,0,.011-.009,0-.009-9.226-.526-18.53-.58-27.793-.68q-14.747-.158-29.507-.084-14.042.049-28.079.28-12.56.2-25.118.363l-20.33.231c-3.3.036-6.608.1-9.911.11q-16.621.038-33.246.081c-2.8.008-5.612.033-8.416.018l-14.659-.087-19.574-.115c-2.369-.015-4.738-.024-7.107-.057l-34.9-.484c-9.238-.126-18.473-.358-27.707-.542C123.715,1,106.389.622,89.058.328Q75.311.1,61.562.016,58.022,0,54.48,0,48.2,0,41.916.046C38.712.069,35.5.132,32.3.131,21.534.126,10.772.281.007.313,0,.313,0,.322,0,.322c2.832.265,5.657.527,8.5.74q4.322.322,8.647.627,8,.562,16,1.054c.988.062,1.983.1,2.974.14q4.267.192,8.535.365,9.4.38,18.81.651c3.53.1,7.063.168,10.6.225Q48.1,4.649,22.217,6.186q-7.522.435-15.036.905" transform="translate(0)" fill="#fff"/>
    </g>
  </g>
</svg>
